<svg width="628" height="499" viewBox="0 0 628 499" fill="none" xmlns="http://www.w3.org/2000/svg">
<path fill-rule="evenodd" clip-rule="evenodd" d="M155.935 148.244C162.411 152.147 168.774 154.033 171.76 153.263C179.25 151.333 179.938 123.935 174.143 113.134C168.349 102.333 138.558 97.625 137.057 119.025C136.536 126.453 139.654 133.081 144.262 138.49L136 177H160L155.935 148.244Z" fill="#D4A181"/>
<path fill-rule="evenodd" clip-rule="evenodd" d="M142.418 143.308C139.406 129.906 130.825 120.771 132.135 114.782C133.446 108.792 139.121 107.332 139.121 107.332C139.121 107.332 142.057 95.4572 158.056 97.2304C174.055 99.0036 183.819 105.648 179.602 120.268C175.726 120.268 171.046 118.866 164.576 121.268C161.496 122.411 160.17 128.358 160.17 128.358H157.246C157.246 128.358 152.989 121.301 148.851 123.171C144.713 125.042 146.97 132.259 146.97 132.259L145.529 143.308H142.418Z" fill="#191847"/>
<path fill-rule="evenodd" clip-rule="evenodd" d="M69 302C60.1634 302 53 309.163 53 318V410C53 418.837 60.1634 426 69 426H184C192.837 426 200 418.837 200 410V318C200 309.163 192.837 302 184 302H69ZM85 330C82.7909 330 81 331.791 81 334V394C81 396.209 82.7909 398 85 398H168C170.209 398 172 396.209 172 394V334C172 331.791 170.209 330 168 330H85Z" fill="#C5CFD6"/>
<path fill-rule="evenodd" clip-rule="evenodd" d="M299.159 421C279.443 396.924 266.103 379.075 259.138 367.454C247.213 347.555 237.453 329.848 234.373 323.084C227.028 306.955 251.282 299.403 256.771 306.926C265.079 318.312 282.822 354.143 310 414.417L299.159 421Z" fill="#B28B67"/>
<path fill-rule="evenodd" clip-rule="evenodd" d="M258.758 414L222.065 321.637C214.217 304.8 252.116 293.732 257.883 301.568C270.977 319.357 302.099 389.534 306 394.834L258.758 414Z" fill="#2F3676"/>
<path fill-rule="evenodd" clip-rule="evenodd" d="M161.033 395.477C168.181 385.051 194.179 349.974 208.339 335.461C212.408 331.291 216.379 327.288 220.134 323.557C231.296 312.47 253.524 331.106 242.382 341.205C214.635 366.355 174.151 400.307 170.769 403.334C166.028 407.577 156.541 402.029 161.033 395.477Z" fill="#B28B67"/>
<path fill-rule="evenodd" clip-rule="evenodd" d="M165.664 391.185C164.971 390.241 163.63 390.017 162.734 390.771C161.099 392.146 158.748 394.264 157.899 395.734C156.547 398.076 154.733 403.021 154.733 403.021C157.45 404.59 203.578 431.222 203.578 431.222C203.578 431.222 209.116 426.027 205.304 423.156C201.491 420.286 199.012 418.315 199.012 418.315L182.152 395.087C181.821 394.631 181.179 394.538 180.733 394.882L177.23 397.579C177.23 397.579 172.409 397.158 170.035 395.788C168.59 394.953 166.824 392.767 165.664 391.185Z" fill="#E4E4E4"/>
<path fill-rule="evenodd" clip-rule="evenodd" d="M293.45 416.284C292.378 415.813 291.104 416.29 290.705 417.391C289.977 419.398 289 422.409 289 424.106C289 426.811 289.901 432 289.901 432C293.039 432 346.303 432 346.303 432C346.303 432 348.502 424.732 343.765 424.152C339.028 423.573 335.895 423.106 335.895 423.106L309.68 411.419C309.165 411.189 308.563 411.43 308.348 411.951L306.663 416.039C306.663 416.039 302.278 418.085 299.537 418.085C297.868 418.085 295.246 417.074 293.45 416.284Z" fill="#E4E4E4"/>
<path fill-rule="evenodd" clip-rule="evenodd" d="M208.862 326.25C208.862 326.25 163.117 318.798 147.581 316.058C118.057 310.852 109.448 294.965 114.538 260.302L168.934 260.302C179.732 263.42 259.168 298.872 259.168 298.872C268.696 303.602 266.921 317.548 265.18 322.142C265.073 322.423 216.992 404.713 216.992 404.713L172.494 376.366L208.946 329.59C208.946 329.59 210.39 326.682 208.862 326.25Z" fill="#5C63AB"/>
<path fill-rule="evenodd" clip-rule="evenodd" d="M244.372 271.758L216.044 244.123L206.636 260.403L236.093 277.77C243.479 289.405 247.817 294.432 249.107 292.852C250.195 291.519 249.696 290.058 249.237 288.713C248.879 287.665 248.545 286.687 249.004 285.894C250.051 284.082 255.965 285.12 261.535 286.344C267.105 287.568 265.817 284.832 264.633 283.404C259.368 279.156 252.615 275.273 244.372 271.758ZM77.3979 311.908C80.3284 305.963 90.3079 248.02 90.3079 248.02L111.205 248.102C111.205 248.102 91.8506 310.583 90.3079 314.406C88.304 319.372 91.708 326.587 94.0161 331.48C94.3732 332.237 94.704 332.938 94.9846 333.567C91.7819 335 90.2434 333.268 88.6215 331.442C86.7896 329.379 84.8511 327.197 80.2879 329.32C78.5249 330.14 76.8567 331.109 75.2268 332.057C69.5968 335.329 64.4248 338.336 57.389 333.994C56.2736 333.306 55.0513 330.715 58.0046 328.69C65.3623 323.645 75.9653 314.815 77.3979 311.908Z" fill="#D4A181"/>
<path fill-rule="evenodd" clip-rule="evenodd" d="M149.695 160.332L158.342 158.849C173.23 196.039 199.222 229.831 236.318 260.225L208.286 294.281C171.194 251.005 148.33 206.355 149.695 160.332Z" fill="#191847"/>
<path fill-rule="evenodd" clip-rule="evenodd" d="M112 269H189C189 269 162.241 203.938 162.241 158.461L139.014 155C120.76 184.358 115.605 220.505 112 269Z" fill="#DDE3E9"/>
<path fill-rule="evenodd" clip-rule="evenodd" d="M77 302C85.4209 206.996 138.504 155 138.504 155L138.522 155.016C138.525 155.011 138.529 155.005 138.532 155H140.048C142.769 155.094 148.338 155.338 148.338 155.338L153.95 171.377C154.841 200.71 164.351 289.606 164.351 289.606H113.95C114.036 293.682 114.225 297.815 114.531 302H77Z" fill="#2F3676"/>
<path fill-rule="evenodd" clip-rule="evenodd" d="M113.958 290C113.556 272.25 115.131 255.584 117.758 240.502C119.132 258.399 122.003 279.933 128 290H113.958Z" fill="black" fill-opacity="0.1"/>
<path fill-rule="evenodd" clip-rule="evenodd" d="M125.111 259L150 247.429V259H125.111Z" fill="white" fill-opacity="0.2"/>
<path fill-rule="evenodd" clip-rule="evenodd" d="M472.065 75.2443C465.589 79.1475 459.226 81.0333 456.24 80.2635C448.75 78.333 448.062 50.9351 453.857 40.1339C459.651 29.3328 489.442 24.625 490.943 46.0255C491.464 53.4529 488.346 60.0814 483.738 65.4901L492 104H468L472.065 75.2443Z" fill="#D4A181"/>
<path fill-rule="evenodd" clip-rule="evenodd" d="M470.865 48.3889C468.789 45.2979 466.796 42.9401 464.203 41.571C453.652 41.7377 452.417 39.8462 452.417 33.471C454.121 32.2515 460.134 30.1982 466.868 29.6206C470.303 28.6375 474.373 28.8224 478.293 30.4622C483.132 31.8352 487.23 34.7923 489.04 40.3283C495.588 51.629 490.618 63.3927 483.92 67.4112C482.137 65.2989 480.581 63.2518 479.193 61.2922C480.308 60.2027 481 58.6822 481 57C481 53.6863 478.314 51 475 51C474.756 51 474.516 51.0145 474.28 51.0427C474.131 55.1858 473.517 69.2027 471.906 74.0715C470.005 79.8116 458.916 81.221 455.049 81.221C451.708 81.221 451.822 78.0578 451.904 75.7908C451.916 75.4643 451.927 75.1564 451.927 74.8792C451.927 74.3001 452.68 74.3016 453.531 74.3033C454.636 74.3055 455.906 74.308 455.906 73.0401C455.906 71.6579 453.996 70.5978 452.287 69.6491C451.221 69.0572 450.232 68.5087 449.835 67.9525C448.581 66.1977 448.159 63.8311 450.05 63.8311C451.084 63.8311 452.503 64.427 454.209 65.144C456.785 66.2264 460.017 67.5847 463.574 67.5847C469.45 67.5847 470.847 48.6261 470.865 48.3889Z" fill="#DDE3E9"/>
<path fill-rule="evenodd" clip-rule="evenodd" d="M500 187L463.745 314.227L437.293 408H418L446.109 187H500Z" fill="#191847"/>
<path fill-rule="evenodd" clip-rule="evenodd" d="M509.696 187C510.534 252.574 513.394 288.34 514.274 294.298C515.155 300.256 528.468 338.156 554.214 408H534.227C501.451 340.997 483.154 303.096 479.337 294.298C475.521 285.5 463.741 249.734 446 187H509.696Z" fill="#2F3676"/>
<path fill-rule="evenodd" clip-rule="evenodd" d="M556 426L555 405L534 405C519.064 415.5 495 422 495 422V426H533L546 424V426H556Z" fill="#191847"/>
<path fill-rule="evenodd" clip-rule="evenodd" d="M440 426L439 405L418 405C403.064 415.5 379 422 379 422V426H417L430 424V426H440Z" fill="#191847"/>
<path fill-rule="evenodd" clip-rule="evenodd" d="M412.652 105.69L447.362 124.7L434.544 138.458L409.323 115.365C396.037 111.704 389.961 109.025 391.095 107.329C392.052 105.9 393.594 105.949 395.015 105.995C396.122 106.031 397.155 106.064 397.78 105.394C399.206 103.863 396.485 98.5104 393.685 93.5416C390.886 88.5727 393.879 89.0053 395.591 89.7199C401.193 93.5123 406.88 98.8356 412.652 105.69ZM377.753 132.364L393 140.74L392.132 156.04C392.132 156.04 382.257 148.913 373.762 146.544C362.929 143.524 358.547 141.218 353.254 134.473C350.421 130.865 348.018 123.61 350.714 121.248C351.748 120.341 355.601 122.482 359.532 124.667C362.528 126.332 365.57 128.022 367.444 128.408C369.966 128.927 369.671 125.657 369.435 123.045C369.266 121.17 369.127 119.633 370.082 120.077C374.545 120.154 377.753 132.364 377.753 132.364Z" fill="#D4A181"/>
<path fill-rule="evenodd" clip-rule="evenodd" d="M464.266 120.465C452.108 120.337 435.896 117.769 418.598 106.789L411.804 121.939C423.736 133.78 440.514 143.51 455.184 143.098C466.745 142.773 472.653 128.789 464.266 120.465Z" fill="#2026A2"/>
<path fill-rule="evenodd" clip-rule="evenodd" d="M497.055 224.259C508.613 222.752 519.234 221.367 525.527 222.606C532.589 199.673 526.725 185.234 521.312 171.905C518.05 163.871 514.951 156.241 514.944 147.397C514.925 121.642 494.246 82 491.203 82H490.33H466.217H463.456C462.216 97.9374 456.921 115.193 451.593 132.56C450.348 136.615 449.102 140.677 447.905 144.729C427.74 149.307 382.964 133.373 382.964 133.373C382.964 133.373 371.66 156.759 372.513 166.717C398.576 180.331 420.913 186.401 439.317 186.802C438.732 197.721 440.061 208.112 444.526 217.606C450.509 230.327 475.424 227.079 497.055 224.259Z" fill="#1F28CF"/>
</svg>
