<svg width="300" height="426" viewBox="0 0 300 426" fill="none" xmlns="http://www.w3.org/2000/svg">
<path fill-rule="evenodd" clip-rule="evenodd" d="M144.065 75.2443C137.589 79.1475 131.226 81.0333 128.24 80.2635C120.75 78.333 120.062 50.9351 125.857 40.1339C131.651 29.3328 161.442 24.625 162.943 46.0255C163.464 53.4529 160.346 60.0814 155.738 65.4901L164 104H140L144.065 75.2443Z" fill="#D4A181"/>
<path fill-rule="evenodd" clip-rule="evenodd" d="M142.865 48.3889C140.789 45.2979 138.796 42.9401 136.203 41.571C125.652 41.7377 124.417 39.8462 124.417 33.4709C126.121 32.2515 132.134 30.1982 138.868 29.6206C142.303 28.6375 146.373 28.8224 150.293 30.4622C155.132 31.8352 159.23 34.7922 161.04 40.3283C167.588 51.629 162.618 63.3927 155.92 67.4112C154.137 65.2989 152.581 63.2518 151.192 61.2922C152.308 60.2027 153 58.6822 153 57C153 53.6863 150.314 51 147 51C146.756 51 146.516 51.0145 146.28 51.0427C146.131 55.1858 145.517 69.2026 143.906 74.0715C142.005 79.8116 130.916 81.221 127.049 81.221C123.708 81.221 123.822 78.0578 123.904 75.7908C123.916 75.4643 123.927 75.1564 123.927 74.8792C123.927 74.3001 124.68 74.3016 125.531 74.3033C126.636 74.3055 127.906 74.308 127.906 73.0401C127.906 71.6579 125.996 70.5977 124.287 69.6491C123.221 69.0572 122.232 68.5087 121.835 67.9525C120.581 66.1977 120.159 63.831 122.05 63.831C123.084 63.831 124.503 64.427 126.209 65.144C128.785 66.2264 132.017 67.5847 135.574 67.5847C141.45 67.5847 142.847 48.6261 142.865 48.3889Z" fill="#DDE3E9"/>
<path fill-rule="evenodd" clip-rule="evenodd" d="M172 187L135.745 314.227L109.293 408H90L118.109 187H172Z" fill="#191847"/>
<path fill-rule="evenodd" clip-rule="evenodd" d="M181.696 187C182.534 252.574 185.394 288.34 186.274 294.298C187.155 300.256 200.468 338.156 226.214 408H206.227C173.451 340.997 155.154 303.096 151.337 294.298C147.521 285.5 135.741 249.734 118 187H181.696Z" fill="#2F3676"/>
<path fill-rule="evenodd" clip-rule="evenodd" d="M228 426L227 405L206 405C191.064 415.5 167 422 167 422V426H205L218 424V426H228Z" fill="#191847"/>
<path fill-rule="evenodd" clip-rule="evenodd" d="M112 426L111 405L90 405C75.0636 415.5 51 422 51 422V426H89L102 424V426H112Z" fill="#191847"/>
<path fill-rule="evenodd" clip-rule="evenodd" d="M84.6522 105.69L119.362 124.7L106.544 138.458L81.3233 115.365C68.0371 111.704 61.9611 109.025 63.0955 107.329C64.0519 105.9 65.5944 105.949 67.0153 105.995C68.1221 106.031 69.1551 106.064 69.7797 105.394C71.2059 103.863 68.4847 98.5104 65.6852 93.5415C62.8857 88.5726 65.8792 89.0052 67.591 89.7198C73.1931 93.5122 78.8801 98.8355 84.6522 105.69ZM49.7535 132.364L65 140.74L64.1318 156.04C64.1318 156.04 54.257 148.913 45.7616 146.544C34.9294 143.524 30.5468 141.218 25.2536 134.473C22.4215 130.864 20.0178 123.61 22.7135 121.248C23.7476 120.341 27.6006 122.482 31.5319 124.667C34.528 126.332 37.5696 128.022 39.4436 128.408C41.9662 128.927 41.6709 125.657 41.4349 123.045C41.2655 121.17 41.1267 119.633 42.0816 120.077C46.5445 120.154 49.7535 132.364 49.7535 132.364Z" fill="#D4A181"/>
<path fill-rule="evenodd" clip-rule="evenodd" d="M136.266 120.465C124.108 120.337 107.896 117.769 90.5976 106.789L83.8041 121.939C95.7362 133.78 112.514 143.51 127.184 143.098C138.745 142.773 144.653 128.789 136.266 120.465Z" fill="#2026A2"/>
<path fill-rule="evenodd" clip-rule="evenodd" d="M169.055 224.259C180.613 222.752 191.234 221.367 197.527 222.606C204.589 199.673 198.725 185.234 193.312 171.905C190.05 163.871 186.951 156.241 186.944 147.397C186.925 121.642 166.246 82 163.203 82H162.33H138.217H135.456C134.216 97.9374 128.921 115.193 123.593 132.56C122.348 136.615 121.102 140.677 119.905 144.729C99.7402 149.307 54.9641 133.373 54.9641 133.373C54.9641 133.373 43.6605 156.759 44.5133 166.717C70.5757 180.331 92.9134 186.401 111.317 186.802C110.732 197.721 112.061 208.112 116.526 217.606C122.509 230.327 147.424 227.079 169.055 224.259Z" fill="#1F28CF"/>
</svg>
